# xmcd
#
# Track frame offsets: 
#        150
#        16007
#        36545
#        53155
#        67262
#        82097
#        97712
#        114177
#        129885
#        145710
#        157712
#        177442
#        194887
#        211530
#        227670
#        249600
#        264385
#        283187
#        300175
#
# Disc length: 4238 seconds
#
# Revision: 2
# Processed by: cddbd v1.5.2PL0 Copyright (c) Steve Scherf et al.
# Submitted via: ExactAudioCopyFreeDBPlugin 1.0
#
DISCID=fa108c13
DTITLE=陳百強 - 精裝陳百強 1
DYEAR=1987
DGENRE=Pop
TTITLE0=徧徧喜歡你
TTITLE1=當我想起你
TTITLE2=戀愛預告
TTITLE3=相思河畔
TTITLE4=不再問究竟
TTITLE5=念親恩
TTITLE6=孤雁
TTITLE7=畫出彩虹
TTITLE8=思想走了光
TTITLE9=突破
TTITLE10=深愛著你
TTITLE11=等
TTITLE12=粉紅色的一生
TTITLE13=喝采
TTITLE14=疾風
TTITLE15=太陽光
TTITLE16=灰色怨曲
TTITLE17=旅程
TTITLE18=偶像
EXTD=
EXTT0=
EXTT1=
EXTT2=
EXTT3=
EXTT4=
EXTT5=
EXTT6=
EXTT7=
EXTT8=
EXTT9=
EXTT10=
EXTT11=
EXTT12=
EXTT13=
EXTT14=
EXTT15=
EXTT16=
EXTT17=
EXTT18=
PLAYORDER=
